<svg id="zoom_out_map_black_24dp_1_" data-name="zoom_out_map_black_24dp (1)" xmlns="http://www.w3.org/2000/svg" width="24" height="24" viewBox="0 0 24 24">
  <g id="Grupo_18858" data-name="Grupo 18858">
    <rect id="Rectángulo_8273" data-name="Rectángulo 8273" width="24" height="24" fill="none"/>
  </g>
  <g id="Grupo_18862" data-name="Grupo 18862">
    <g id="Grupo_18861" data-name="Grupo 18861">
      <g id="Grupo_18860" data-name="Grupo 18860">
        <g id="Grupo_18859" data-name="Grupo 18859">
          <path id="Trazado_11657" data-name="Trazado 11657" d="M15.85,3.85,17.3,5.3,15.12,7.46a1.008,1.008,0,0,0,0,1.42h0a1.008,1.008,0,0,0,1.42,0L18.7,6.7l1.45,1.45A.5.5,0,0,0,21,7.79V3.5a.5.5,0,0,0-.5-.5H16.21A.5.5,0,0,0,15.85,3.85Zm-12,4.3L5.3,6.7,7.46,8.88a1.008,1.008,0,0,0,1.42,0h0a1.008,1.008,0,0,0,0-1.42L6.7,5.3,8.15,3.85A.5.5,0,0,0,7.79,3H3.5a.5.5,0,0,0-.5.5V7.79A.5.5,0,0,0,3.85,8.15Zm4.3,12L6.7,18.7l2.18-2.16a1.008,1.008,0,0,0,0-1.42h0a1.008,1.008,0,0,0-1.42,0L5.3,17.3,3.85,15.85a.5.5,0,0,0-.85.36V20.5a.5.5,0,0,0,.5.5H7.79A.5.5,0,0,0,8.15,20.15Zm12-4.3L18.7,17.3l-2.16-2.18a1.008,1.008,0,0,0-1.42,0h0a1.008,1.008,0,0,0,0,1.42L17.3,18.7l-1.45,1.45a.5.5,0,0,0,.36.85H20.5a.5.5,0,0,0,.5-.5V16.21A.5.5,0,0,0,20.15,15.85Z" fill="#54191b"/>
        </g>
      </g>
    </g>
  </g>
</svg>
